# xmcd
# 
# Track frame offsets:
#     150
#     16428
#     37485
#     67899
#     110091
#     136471
#     153327
#     174980
#     197493
#     236434
#     261399
#     280407
#     305298
# 
# Disc length: 4590
# 
# Revision: 2
# Processed by: cddbd v1.5.2PL0 Copyright (c) Steve Scherf et al.
# Submitted via: fre:ac v1.0.17
# 
DISCID=b911ec0d
DTITLE=Håkan Nesser - Das zweite Leben des Herrn Roos [CD 6]
DYEAR=2009
DGENRE=Hörbuch
TTITLE0=Das zweite Leben des Herrn Roos 61 [CD6]
TTITLE1=Das zweite Leben des Herrn Roos 62 [CD6]
TTITLE2=Das zweite Leben des Herrn Roos 63 [CD6]
TTITLE3=Das zweite Leben des Herrn Roos 64 [CD6]
TTITLE4=Das zweite Leben des Herrn Roos 65 [CD6]
TTITLE5=Das zweite Leben des Herrn Roos 66 [CD6]
TTITLE6=Das zweite Leben des Herrn Roos 67 [CD6]
TTITLE7=Das zweite Leben des Herrn Roos 68 [CD6]
TTITLE8=Das zweite Leben des Herrn Roos 69 [CD6]
TTITLE9=Das zweite Leben des Herrn Roos 70 [CD6]
TTITLE10=Das zweite Leben des Herrn Roos 71 [CD6]
TTITLE11=Das zweite Leben des Herrn Roos 72 [CD6]
TTITLE12=Das zweite Leben des Herrn Roos 73 [CD6]
EXTD=YEAR: 2009
EXTT0=
EXTT1=
EXTT2=
EXTT3=
EXTT4=
EXTT5=
EXTT6=
EXTT7=
EXTT8=
EXTT9=
EXTT10=
EXTT11=
EXTT12=
PLAYORDER=
